<svg width="19" height="24" viewBox="0 0 19 24" fill="none" xmlns="http://www.w3.org/2000/svg">
<path d="M18.2667 11.7333C17.0667 10.4667 15.4667 9.60001 13.8 9.26667C13.0667 9.06667 12.3333 8.93334 11.6 8.86667C13.4667 6.66667 13.1333 3.33334 10.9333 1.46667C8.73334 -0.399994 5.40001 -0.0666609 3.53334 2.13334C1.66667 4.33334 2.00001 7.66667 4.20001 9.53334C4.60001 9.86667 5.00001 10.1333 5.40001 10.2667V11.7333L4.33334 10.7333C3.40001 9.8 1.86667 9.8 0.866672 10.7333C-0.0666614 11.6667 -0.133328 13.1333 0.800005 14.0667L3.86667 17.6667C4.00001 18.6 4.33334 19.4667 4.8 20.2667C5.13334 20.8667 5.60001 21.4667 6.06667 21.9333V23.2C6.06667 23.6 6.33334 23.8667 6.73334 23.8667H15.8C16.1333 23.8667 16.4667 23.5333 16.4667 23.2V21.4667C17.7333 19.9333 18.4 18 18.4 16.0667V12.2C18.4667 11.9333 18.4 11.8 18.2667 11.7333ZM3.6 5.46667C3.6 3.26667 5.4 1.53334 7.60001 1.60001C9.8 1.60001 11.5333 3.40001 11.4667 5.60001C11.4667 6.8 10.9333 7.86667 10 8.60001V5.26667C9.96596 4.68892 9.71221 4.14607 9.29076 3.74942C8.86931 3.35276 8.31209 3.13234 7.73334 3.13334C6.53334 3.06667 5.46667 4.06667 5.46667 5.26667V8.73334C4.33334 8.06667 3.66667 6.80001 3.6 5.46667ZM17.1333 16C17.2 17.7333 16.6 19.4 15.4667 20.7333C15.3333 20.8667 15.2 21 15.2 21.2V22.6H7.46667V21.6667C7.46667 21.4667 7.33334 21.2667 7.20001 21.1333C6.73334 20.7333 6.33334 20.2667 6.00001 19.6667C5.60001 19 5.33334 18.2 5.20001 17.4C5.20001 17.2667 5.13334 17.1333 5.06667 17L1.86667 13.2C1.66667 13 1.53334 12.7333 1.53334 12.4C1.53334 12.1333 1.66667 11.8 1.86667 11.6C2.33334 11.2 3.00001 11.2 3.46667 11.6L5.40001 13.5333V15.5333L6.66667 14.8667V5.26667C6.73334 4.80001 7.13334 4.40001 7.66667 4.46667C8.13334 4.46667 8.60001 4.80001 8.60001 5.26667V12.9333L9.93334 13.2V10.1333C10 10.0667 10.0667 10.0667 10.1333 10C10.6 10 11.0667 10.0667 11.5333 10.1333V13.5333L12.6 13.7333V10.2667L13.4 10.4667C13.7333 10.5333 14.0667 10.6667 14.4 10.8V14.1333L15.4667 14.3333V11.2667C16.0667 11.5333 16.6 11.9333 17.0667 12.4L17.1333 16Z" fill="white"/>
</svg>
