<svg width="38" height="38" viewBox="0 0 38 38" fill="none" xmlns="http://www.w3.org/2000/svg">
<g filter="url(#filter0_d_1_737)">
<circle cx="19" cy="15" r="15" fill="#1B1B1B"/>
<path d="M24.6985 10.8295C23.7258 10.4391 22.6995 10.1605 21.6451 10.0006C21.6355 9.99916 21.6257 10.0004 21.617 10.004C21.6082 10.0077 21.601 10.0137 21.5963 10.0211C21.4641 10.2261 21.3179 10.4942 21.2157 10.7041C20.0791 10.5532 18.923 10.5532 17.7863 10.7041C17.6724 10.4702 17.5434 10.2422 17.4001 10.0211C17.3953 10.0137 17.3881 10.0079 17.3794 10.0042C17.3707 10.0006 17.3609 9.99928 17.3514 10.0006C16.2967 10.1596 15.2701 10.4384 14.2979 10.8295C14.2896 10.8323 14.2827 10.8375 14.2783 10.8443C12.3339 13.3853 11.8005 15.864 12.062 18.3115C12.063 18.323 12.0714 18.3344 12.0817 18.3418C13.2139 19.0754 14.4804 19.6354 15.827 19.9981C15.8365 20.0007 15.8467 20.0006 15.8562 19.9978C15.8656 19.995 15.8738 19.9897 15.8795 19.9825C16.1682 19.6381 16.4251 19.2749 16.6464 18.8928C16.651 18.885 16.6525 18.876 16.6509 18.8673C16.6492 18.8586 16.6443 18.8505 16.637 18.8444C16.6321 18.8404 16.6264 18.8374 16.6201 18.8354C16.2162 18.6997 15.825 18.5365 15.4501 18.3476C15.4397 18.3424 15.4319 18.3339 15.4284 18.3238C15.4249 18.3137 15.426 18.3028 15.4314 18.2934C15.4346 18.2873 15.4394 18.282 15.4454 18.2779C15.5242 18.2262 15.6029 18.1721 15.6779 18.118C15.6846 18.1133 15.6925 18.1103 15.7009 18.1093C15.7094 18.1083 15.7179 18.1093 15.7257 18.1122C18.181 19.0929 20.8388 19.0929 23.2641 18.1122C23.2722 18.1092 23.2811 18.1081 23.2899 18.1091C23.2986 18.1101 23.3069 18.1132 23.3138 18.118C23.3888 18.1721 23.4675 18.2262 23.5463 18.2779C23.5527 18.2819 23.5578 18.2873 23.5612 18.2936C23.5646 18.2998 23.5662 18.3067 23.5658 18.3136C23.5655 18.3205 23.5631 18.3272 23.5591 18.3331C23.555 18.3391 23.5493 18.344 23.5425 18.3476C23.1685 18.5383 22.7768 18.7012 22.3716 18.8346C22.3651 18.8367 22.3593 18.8399 22.3544 18.8442C22.3496 18.8484 22.3458 18.8536 22.3435 18.8592C22.3413 18.8647 22.3405 18.8705 22.3409 18.8763C22.3414 18.882 22.3432 18.8877 22.3463 18.8928C22.5713 19.2741 22.8291 19.6381 23.1122 19.9825C23.1179 19.9897 23.1261 19.995 23.1356 19.9978C23.145 20.0006 23.1552 20.0007 23.1647 19.9981C24.5136 19.6365 25.7821 19.0764 26.9156 18.3418C26.9213 18.3384 26.926 18.3339 26.9294 18.3286C26.9328 18.3234 26.9349 18.3175 26.9353 18.3115C27.2484 15.4819 26.4113 13.0237 24.7172 10.8451C24.7155 10.8415 24.713 10.8383 24.7097 10.8356C24.7065 10.8329 24.7027 10.8308 24.6985 10.8295ZM17.0129 16.8208C16.2732 16.8208 15.6648 16.2272 15.6648 15.4991C15.6648 14.7702 16.262 14.1765 17.0129 14.1765C17.7695 14.1765 18.3723 14.7751 18.361 15.4991C18.361 16.2272 17.7638 16.8208 17.0129 16.8208ZM21.9966 16.8208C21.2579 16.8208 20.6485 16.2272 20.6485 15.4991C20.6485 14.7702 21.2457 14.1765 21.9966 14.1765C22.7532 14.1765 23.3569 14.7751 23.3447 15.4991C23.3447 16.2272 22.7532 16.8208 21.9966 16.8208Z" fill="white"/>
</g>
<defs>
<filter id="filter0_d_1_737" x="0" y="0" width="38" height="38" filterUnits="userSpaceOnUse" color-interpolation-filters="sRGB">
<feFlood flood-opacity="0" result="BackgroundImageFix"/>
<feColorMatrix in="SourceAlpha" type="matrix" values="0 0 0 0 0 0 0 0 0 0 0 0 0 0 0 0 0 0 127 0" result="hardAlpha"/>
<feOffset dy="4"/>
<feGaussianBlur stdDeviation="2"/>
<feComposite in2="hardAlpha" operator="out"/>
<feColorMatrix type="matrix" values="0 0 0 0 0 0 0 0 0 0 0 0 0 0 0 0 0 0 0.25 0"/>
<feBlend mode="normal" in2="BackgroundImageFix" result="effect1_dropShadow_1_737"/>
<feBlend mode="normal" in="SourceGraphic" in2="effect1_dropShadow_1_737" result="shape"/>
</filter>
</defs>
</svg>
